  <svg width="40" height="40" viewBox="0 0 40 40" xmlns="http://www.w3.org/2000/svg">
    <path
      d="M26.8427 21.502L23.5498 19.6008L28.6196 10.8196C29.0632 10.0512 29.8022 10.0388 30.4608 10.419L31.3389 10.926C31.9975 11.3062 32.3562 11.9524 31.9126 12.7208L26.8427 21.502Z"
    />
    <path
      d="M16.2907 19.5259L12.9977 21.4272L7.92783 12.6459C7.48422 11.8775 7.84293 11.2314 8.50152 10.8511L9.37965 10.3441C10.0382 9.96388 10.7772 9.97631 11.2208 10.7447L16.2907 19.5259Z"
    />
    <path
      d="M26.3358 22.3803L23.0428 20.4791L19.8742 25.9674L16.8019 20.3884L13.5078 22.2917C13.5078 22.2917 17.6443 29.7577 18.3271 30.9284C19.01 32.0991 20.6956 32.1494 21.3293 31.0518L26.3358 22.3803Z"
    />
    <path
      fill-rule="evenodd" clip-rule="evenodd"
      d="M20 37.75C29.8031 37.75 37.75 29.8031 37.75 20C37.75 10.1969 29.8031 2.25 20 2.25C10.1969 2.25 2.25 10.1969 2.25 20C2.25 29.8031 10.1969 37.75 20 37.75ZM20 40C31.0457 40 40 31.0457 40 20C40 8.9543 31.0457 0 20 0C8.9543 0 0 8.9543 0 20C0 31.0457 8.9543 40 20 40Z"
    />
  </svg>